<svg xmlns="http://www.w3.org/2000/svg" data-name="Logo" viewBox="0 0 645.35 563.01" class="h-24"><g><polygon points="467.64 225.88 467.64 428.99 120.01 428.99 120.01 393.59 432.25 393.59 432.25 240.54 322.34 130.64 212.59 240.39 212.59 319.25 177.19 319.25 177.19 225.75 297.32 105.62 322.34 80.58 347.38 105.62 467.64 225.88" style="fill:#212121;stroke-width:0"></polygon><polygon points="524.82 203.19 524.82 428.99 489.43 428.99 489.43 217.85 322.34 50.77 307.43 65.67 282.41 90.71 212.59 160.52 155.41 217.7 155.41 338.5 412.93 338.5 412.93 373.89 120.01 373.89 120.01 203.04 212.59 110.46 257.38 65.67 282.41 40.65 297.32 25.74 322.34 .71 347.38 25.74 362.28 40.65 387.31 65.67 524.82 203.19" style="fill:#212121;stroke-width:0"></polygon></g><g><polygon points="50.45 533.07 24.8 470.82 .76 470.82 39.14 561.14 61.2 561.14 99.59 470.82 76.09 470.82 50.45 533.07" style="fill:#212121;stroke-width:0"></polygon><rect x="129.98" y="470.82" width="21.89" height="90.32" style="fill:#212121;stroke-width:0"></rect><path d="M232.98,506.15l-7.68-1.23c-6.36-.97-10.68-2.13-12.84-3.44-1.91-1.16-2.84-2.73-2.84-4.79,0-2.35,1.04-4.14,3.19-5.48,2.32-1.45,5.54-2.19,9.54-2.19,4.34,0,7.77.9,10.22,2.68,2.34,1.71,3.48,4.01,3.48,7.04v1.36h22.3v-1.36c0-8.79-3.42-15.96-10.16-21.32-6.65-5.28-15.39-7.96-25.96-7.96s-18.89,2.59-25.22,7.69c-6.42,5.18-9.68,12.16-9.68,20.77,0,7.3,2.68,13.47,7.97,18.32,5.19,4.77,12.66,7.99,22.22,9.58l7.64,1.09c4.8.78,8.23,1.86,10.2,3.2,1.76,1.2,2.62,2.85,2.62,5.03,0,2.35-1.04,4.14-3.19,5.48-2.32,1.45-5.53,2.19-9.54,2.19-4.62,0-8.46-1.04-11.4-3.11-2.83-1.98-4.21-4.41-4.21-7.44v-1.36h-22.84v1.36c0,8.79,3.63,16.13,10.78,21.8,7.06,5.6,16.28,8.44,27.4,8.44s19.6-2.64,25.98-7.83c6.46-5.26,9.74-12.48,9.74-21.45,0-7.38-2.42-13.46-7.19-18.09-4.7-4.56-11.6-7.58-20.51-8.99Z" style="fill:#212121;stroke-width:0"></path><rect x="295.32" y="470.82" width="21.89" height="90.32" style="fill:#212121;stroke-width:0"></rect><polygon points="349.66 491.2 379.91 491.2 379.91 561.14 401.79 561.14 401.79 491.2 431.91 491.2 431.91 470.82 349.66 470.82 349.66 491.2" style="fill:#212121;stroke-width:0"></polygon><polygon points="464.36 561.14 486.25 561.14 486.25 529.93 525.67 529.93 525.67 510.37 486.25 510.37 486.25 491.2 529.77 491.2 529.77 470.82 464.36 470.82 464.36 561.14" style="fill:#212121;stroke-width:0"></polygon><polygon points="620.3 470.82 599.31 505.93 578.32 470.82 553.08 470.82 587.69 527.04 587.69 561.14 609.57 561.14 609.57 527.32 644.46 470.82 620.3 470.82" style="fill:#212121;stroke-width:0"></polygon></g></svg>
